<mxfile host="65bd71144e">
    <diagram id="e0O4fr5WnfySxlzCR4Ap" name="PÃ¡gina-1">
        <mxGraphModel dx="622" dy="617" grid="1" gridSize="10" guides="1" tooltips="1" connect="1" arrows="1" fold="1" page="1" pageScale="1" pageWidth="827" pageHeight="1169" math="0" shadow="0">
            <root>
                <mxCell id="0"/>
                <mxCell id="1" parent="0"/>
                <mxCell id="2" value="&lt;&lt;abstract&gt;&gt;&#10;Topografia&#10;" style="swimlane;fontStyle=1;align=center;verticalAlign=top;childLayout=stackLayout;horizontal=1;startSize=40;horizontalStack=0;resizeParent=1;resizeParentMax=0;resizeLast=0;collapsible=1;marginBottom=0;fontFamily=Lucida Console;" parent="1" vertex="1">
                    <mxGeometry x="80" y="80" width="370" height="100" as="geometry"/>
                </mxCell>
                <mxCell id="4" value="" style="line;strokeWidth=1;fillColor=none;align=left;verticalAlign=middle;spacingTop=-1;spacingLeft=3;spacingRight=3;rotatable=0;labelPosition=right;points=[];portConstraint=eastwest;fontFamily=Lucida Console;" parent="2" vertex="1">
                    <mxGeometry y="40" width="370" height="8" as="geometry"/>
                </mxCell>
                <mxCell id="5" value="+&lt;&lt;abstract&gt;&gt; calcularProporcionDeAgua(): double" style="text;strokeColor=none;fillColor=none;align=left;verticalAlign=top;spacingLeft=4;spacingRight=4;overflow=hidden;rotatable=0;points=[[0,0.5],[1,0.5]];portConstraint=eastwest;fontFamily=Lucida Console;" parent="2" vertex="1">
                    <mxGeometry y="48" width="370" height="26" as="geometry"/>
                </mxCell>
                <mxCell id="16" value="+ equals(): boolean" style="text;strokeColor=none;fillColor=none;align=left;verticalAlign=top;spacingLeft=4;spacingRight=4;overflow=hidden;rotatable=0;points=[[0,0.5],[1,0.5]];portConstraint=eastwest;fontFamily=Lucida Console;" parent="2" vertex="1">
                    <mxGeometry y="74" width="370" height="26" as="geometry"/>
                </mxCell>
                <mxCell id="17" style="edgeStyle=none;html=1;endArrow=block;endFill=1;endSize=12;fontFamily=Lucida Console;" parent="1" source="6" target="16" edge="1">
                    <mxGeometry relative="1" as="geometry"/>
                </mxCell>
                <mxCell id="6" value="&lt;&lt;contenedor&gt;&gt;&#10;Composite" style="swimlane;fontStyle=1;align=center;verticalAlign=top;childLayout=stackLayout;horizontal=1;startSize=40;horizontalStack=0;resizeParent=1;resizeParentMax=0;resizeLast=0;collapsible=1;marginBottom=0;fontFamily=Lucida Console;" parent="1" vertex="1">
                    <mxGeometry x="320" y="284" width="220" height="100" as="geometry"/>
                </mxCell>
                <mxCell id="7" value="- topografias: Topografia [];" style="text;strokeColor=none;fillColor=none;align=left;verticalAlign=top;spacingLeft=4;spacingRight=4;overflow=hidden;rotatable=0;points=[[0,0.5],[1,0.5]];portConstraint=eastwest;fontFamily=Lucida Console;" parent="6" vertex="1">
                    <mxGeometry y="40" width="220" height="26" as="geometry"/>
                </mxCell>
                <mxCell id="8" value="" style="line;strokeWidth=1;fillColor=none;align=left;verticalAlign=middle;spacingTop=-1;spacingLeft=3;spacingRight=3;rotatable=0;labelPosition=right;points=[];portConstraint=eastwest;fontFamily=Lucida Console;" parent="6" vertex="1">
                    <mxGeometry y="66" width="220" height="8" as="geometry"/>
                </mxCell>
                <mxCell id="9" value="+ calcularProporcionDeAgua(): double" style="text;strokeColor=none;fillColor=none;align=left;verticalAlign=top;spacingLeft=4;spacingRight=4;overflow=hidden;rotatable=0;points=[[0,0.5],[1,0.5]];portConstraint=eastwest;fontFamily=Lucida Console;" parent="6" vertex="1">
                    <mxGeometry y="74" width="220" height="26" as="geometry"/>
                </mxCell>
                <mxCell id="18" style="edgeStyle=none;html=1;endArrow=block;endFill=1;endSize=12;fontFamily=Lucida Console;" parent="1" source="10" target="16" edge="1">
                    <mxGeometry relative="1" as="geometry"/>
                </mxCell>
                <mxCell id="10" value="&lt;&lt;hoja&gt;&gt;&#10;Atomic" style="swimlane;fontStyle=1;align=center;verticalAlign=top;childLayout=stackLayout;horizontal=1;startSize=40;horizontalStack=0;resizeParent=1;resizeParentMax=0;resizeLast=0;collapsible=1;marginBottom=0;fontFamily=Lucida Console;" parent="1" vertex="1">
                    <mxGeometry x="50" y="290" width="170" height="74" as="geometry"/>
                </mxCell>
                <mxCell id="11" value="- topografia: integer" style="text;strokeColor=none;fillColor=none;align=left;verticalAlign=top;spacingLeft=4;spacingRight=4;overflow=hidden;rotatable=0;points=[[0,0.5],[1,0.5]];portConstraint=eastwest;fontFamily=Lucida Console;" parent="10" vertex="1">
                    <mxGeometry y="40" width="170" height="26" as="geometry"/>
                </mxCell>
                <mxCell id="12" value="" style="line;strokeWidth=1;fillColor=none;align=left;verticalAlign=middle;spacingTop=-1;spacingLeft=3;spacingRight=3;rotatable=0;labelPosition=right;points=[];portConstraint=eastwest;fontFamily=Lucida Console;" parent="10" vertex="1">
                    <mxGeometry y="66" width="170" height="8" as="geometry"/>
                </mxCell>
            </root>
        </mxGraphModel>
    </diagram>
</mxfile>